<?xml version="1.0" standalone="no"?>
<!DOCTYPE svg PUBLIC "-//W3C//DTD SVG 20010904//EN"
 "http://www.w3.org/TR/2001/REC-SVG-20010904/DTD/svg10.dtd">
<svg version="1.0" xmlns="http://www.w3.org/2000/svg"
 width="900.000000pt" height="1380.000000pt" viewBox="0 0 900.000000 1380.000000"
 preserveAspectRatio="xMidYMid meet">
<metadata>
Created by potrace 1.16, written by Peter Selinger 2001-2019
</metadata>
<g transform="translate(0.000000,1380.000000) scale(0.100000,-0.100000)"
fill="#000000" stroke="none">
<path d="M4292 12962 c-19 -6 -162 -212 -162 -232 0 -6 -4 -10 -10 -10 -5 0
-10 -8 -10 -17 0 -11 9 -4 26 21 l26 38 19 -41 c18 -40 49 -55 64 -31 3 5 12
7 20 3 8 -3 15 1 15 8 0 7 3 9 6 6 10 -10 44 33 44 56 0 11 -8 29 -17 40 -18
20 -17 20 12 13 17 -4 43 -14 59 -21 15 -8 43 -17 62 -21 19 -3 34 -10 34 -15
0 -7 22 -7 73 0 13 2 -39 70 -82 107 -22 19 -45 33 -51 29 -5 -3 -10 1 -10 9
0 10 -9 16 -25 16 -18 0 -25 5 -25 19 0 18 -41 32 -68 23z"/>
<path d="M4343 11589 c-13 -5 -23 -15 -23 -23 0 -8 -16 -20 -35 -26 -28 -9
-35 -16 -33 -33 2 -17 -2 -22 -22 -23 -14 0 -47 -15 -74 -32 -28 -18 -53 -32
-57 -32 -5 0 -10 26 -12 58 l-3 57 -2 -57 c-2 -44 -6 -58 -17 -58 -24 0 -29
-45 -9 -79 17 -29 19 -30 37 -13 19 16 19 16 12 -8 -14 -48 -27 -46 -64 8 -15
21 -41 19 -41 -3 0 -7 -7 -18 -15 -25 -8 -7 -15 -29 -15 -48 0 -22 -4 -32 -9
-26 -8 8 -14 29 -38 134 -11 46 -21 51 -64 30 -21 -11 -54 -20 -73 -20 -24 0
-38 -6 -45 -19 -6 -10 -25 -21 -43 -24 -18 -3 -44 -8 -57 -13 -19 -6 -23 -4
-19 8 4 8 2 21 -2 28 -5 8 -3 28 6 49 8 19 12 36 9 39 -3 3 4 11 15 19 24 17
28 48 5 39 -8 -3 -15 0 -15 6 0 24 -41 -28 -51 -65 -13 -48 -25 -61 -64 -71
-65 -16 -74 -29 -72 -106 1 -38 4 -65 5 -60 2 6 12 10 21 10 10 0 21 3 25 7
10 11 76 31 76 24 0 -13 -24 -31 -42 -31 -28 0 -68 -22 -68 -37 0 -8 -4 -11
-10 -8 -6 3 -9 -4 -9 -17 2 -31 16 -87 18 -68 0 8 10 21 21 28 11 7 20 20 20
30 0 9 9 28 20 42 11 14 20 21 19 15 0 -5 -6 -19 -14 -29 -8 -11 -15 -27 -15
-36 0 -8 -9 -21 -20 -28 -22 -14 -27 -41 -7 -43 6 -1 31 -1 54 1 52 2 111 -18
119 -42 3 -10 13 -17 22 -16 9 1 29 0 45 0 26 -2 27 -4 27 -54 0 -29 5 -71 11
-93 22 -81 22 -99 0 -119 -30 -27 -26 -60 10 -89 28 -22 29 -24 13 -38 -10 -8
-15 -9 -11 -2 8 12 -30 30 -40 19 -4 -3 -1 -6 6 -6 6 0 16 -11 21 -25 8 -21
14 -24 41 -18 27 5 31 4 26 -10 -9 -23 10 -21 23 2 6 12 17 17 29 14 33 -8 60
15 72 61 l11 44 56 -2 c32 0 65 3 75 8 15 7 17 3 17 -28 0 -26 7 -44 25 -62
24 -24 28 -24 116 -19 78 5 94 9 109 28 14 17 31 22 88 25 66 4 70 5 75 31 3
14 3 62 1 106 -4 86 -15 105 -61 105 -24 0 -30 19 -12 37 8 8 8 13 0 18 -6 3
-15 -4 -20 -17 -9 -22 -9 -22 -16 -3 -18 53 -27 67 -57 85 -24 15 -43 19 -70
15 -36 -5 -37 -4 -35 24 2 22 5 27 17 21 15 -8 80 19 111 47 15 13 19 12 33
-9 9 -12 16 -30 16 -38 0 -20 19 -40 38 -40 10 0 8 8 -7 29 -12 16 -21 32 -21
36 0 3 -7 13 -15 22 -9 8 -13 23 -10 33 4 12 -5 31 -25 54 -25 28 -37 34 -62
31 -17 -2 -41 -14 -53 -25 -13 -12 -31 -20 -40 -18 -13 2 -5 12 29 36 25 18
46 37 46 42 0 5 6 7 13 4 8 -3 18 1 24 8 13 16 23 129 11 122 -13 -8 -9 10 7
33 10 14 12 24 5 28 -16 10 -12 28 5 21 18 -7 20 21 5 76 -13 44 -18 48 -47
37z m-135 -481 c7 -17 8 -28 2 -28 -6 0 -10 7 -10 15 0 8 -9 15 -20 15 -23 0
-23 -2 -10 -52 8 -27 18 -39 41 -47 l31 -11 -31 -26 c-17 -14 -31 -32 -31 -40
0 -17 40 -34 90 -39 19 -1 36 -4 38 -5 7 -7 28 -4 34 5 4 5 8 -2 8 -17 0 -32
-8 -34 -36 -13 -10 8 -29 15 -42 15 -12 0 -39 7 -59 15 -46 19 -56 11 -73 -62
-18 -78 -33 -92 -29 -28 4 82 1 95 -18 88 -13 -5 -15 -2 -10 11 6 15 2 16 -28
10 l-35 -6 -2 53 -2 54 -3 -52 c-2 -29 -7 -53 -11 -53 -4 0 -24 11 -44 25 -20
14 -46 25 -57 25 -12 0 -21 4 -21 10 0 9 7 16 48 48 17 13 26 32 31 72 5 41
11 54 21 51 8 -2 26 -6 40 -8 52 -9 54 -12 34 -36 -10 -12 -3 -8 16 9 40 36
70 49 70 31 0 -6 7 -1 16 11 15 22 17 22 28 5 7 -10 17 -30 24 -45z"/>
<path d="M3412 10611 c7 -11 14 -18 18 -16 3 1 20 -10 39 -26 l35 -29 -32 -11
c-17 -6 -34 -20 -38 -32 -4 -12 -19 -38 -34 -57 -28 -35 -47 -80 -35 -80 3 0
16 5 28 12 20 10 21 10 8 -5 -7 -10 -20 -17 -27 -17 -8 0 -14 -4 -14 -10 0 -6
10 -5 28 1 15 6 40 11 56 11 16 -1 39 4 50 11 12 6 41 12 66 12 42 0 45 2 48
29 l4 28 34 -33 c19 -18 34 -38 34 -45 0 -6 12 -20 27 -29 14 -10 37 -29 49
-44 13 -14 23 -21 24 -16 0 23 -348 365 -372 365 -4 0 -3 -9 4 -19z"/>
<path d="M5130 10436 c-6 -18 -21 -28 -50 -36 -36 -10 -40 -14 -40 -42 0 -29
2 -30 30 -24 17 3 30 1 30 -4 0 -6 -13 -10 -29 -10 -31 0 -51 -28 -29 -42 11
-6 10 -8 0 -8 -7 0 -10 -4 -7 -10 3 -5 19 -10 34 -10 16 0 40 -9 55 -21 42
-33 86 -42 103 -21 14 16 14 16 9 0 -3 -10 -1 -20 5 -24 16 -10 59 25 59 47 0
18 4 20 28 14 15 -4 45 -8 66 -9 24 0 41 -7 44 -15 3 -8 0 -11 -6 -7 -16 10
-24 -11 -12 -34 12 -22 38 -27 45 -7 3 6 19 12 36 13 17 1 37 8 46 16 12 13
13 19 1 37 -14 23 -30 26 -59 11 -10 -6 -19 -7 -19 -2 0 4 16 16 35 25 23 11
36 25 40 44 4 15 11 38 16 51 20 50 5 98 -21 67 -7 -8 -16 -12 -21 -10 -4 3
-11 -1 -16 -8 -9 -14 -77 -37 -112 -37 -25 0 -28 -22 -6 -44 9 -8 11 -17 6
-21 -5 -3 -16 4 -24 15 -15 21 -15 21 -34 -6 l-20 -27 -7 47 c-7 46 -9 48 -35
43 -16 -3 -52 -9 -81 -13 l-53 -7 6 33 c4 18 15 39 25 46 16 12 15 13 -6 14
-15 0 -26 -8 -32 -24z"/>
<path d="M3571 9718 c-11 -31 -3 -47 22 -48 4 0 7 -15 7 -32 0 -18 12 -58 26
-88 25 -54 25 -55 8 -89 -18 -33 -18 -33 5 -52 13 -11 30 -19 38 -19 8 0 28
-8 44 -17 39 -23 61 -9 73 44 8 37 11 40 39 38 26 -2 35 -10 59 -57 33 -62 30
-83 -15 -93 l-32 -6 23 -16 c32 -23 27 -34 -8 -16 -17 8 -28 19 -25 24 4 5 -1
9 -9 9 -9 0 -16 -3 -16 -7 1 -13 27 -43 38 -43 5 0 13 -7 16 -16 3 -9 11 -12
18 -8 9 5 8 2 -1 -9 -12 -16 -11 -21 13 -46 21 -22 27 -36 23 -62 -2 -19 0
-46 4 -61 7 -25 5 -28 -16 -28 -12 0 -25 -6 -28 -14 -6 -14 10 -24 50 -32 25
-5 42 14 23 26 -8 5 2 8 24 8 l38 0 -28 -29 c-15 -16 -32 -29 -36 -29 -17 0
-68 -44 -68 -59 0 -14 -1 -14 -10 -1 -8 13 -11 11 -16 -7 -4 -13 -10 -23 -15
-23 -5 0 -9 -7 -9 -15 0 -11 12 -15 46 -15 40 0 45 -2 39 -17 -57 -136 -85
-243 -84 -321 l1 -57 9 39 c5 22 17 49 27 59 16 18 16 20 1 30 -15 9 -15 16
-2 71 7 34 20 76 29 94 8 18 21 50 28 70 10 30 21 40 55 53 23 8 38 19 34 23
-4 5 2 5 14 2 15 -5 25 -1 35 13 9 13 19 17 28 11 7 -4 28 -6 47 -3 30 5 33 3
33 -18 0 -13 7 -33 15 -43 21 -27 19 -41 -7 -54 l-23 -11 26 0 c14 -1 30 -6
37 -13 18 -18 15 2 -13 70 -30 74 -30 76 -5 69 13 -3 20 0 20 10 0 10 -6 13
-16 9 -28 -11 -60 4 -62 29 -1 13 -15 50 -31 82 l-30 58 42 85 c60 121 68 140
58 140 -5 0 -15 -16 -21 -35 -14 -41 -22 -43 -43 -11 -13 20 -26 25 -72 28
-59 3 -59 3 -40 -46 6 -13 4 -17 -4 -15 -7 3 -11 8 -9 13 2 5 -7 12 -19 17
-26 9 -30 26 -9 31 11 2 8 13 -14 43 -36 50 -90 142 -90 152 0 5 5 1 10 -7 5
-8 17 -15 27 -15 11 0 19 -9 21 -23 5 -33 44 -55 84 -47 62 12 68 16 68 40 0
14 7 43 16 65 l16 40 64 0 64 0 -6 43 c-9 63 -9 63 -57 76 -31 7 -48 18 -52
31 -13 41 -92 70 -123 46 -28 -22 -62 -59 -62 -67 0 -5 15 -15 33 -23 l32 -13
-40 1 c-43 1 -42 3 -44 -66 -1 -53 -17 -47 -24 8 -5 51 -20 66 -54 57 -20 -4
-24 0 -29 26 -4 17 -11 31 -15 31 -5 0 -7 -10 -5 -22 11 -49 13 -62 9 -51 -5
13 -71 38 -92 34 -7 -1 -10 2 -6 9 4 6 -8 17 -30 26 -20 8 -33 19 -30 24 3 6
0 10 -8 10 -8 0 -17 7 -21 15 -9 24 -23 17 -35 -17z"/>
<path d="M4404 9687 c-33 -43 -38 -55 -28 -65 7 -7 11 -18 9 -25 -7 -19 74
-60 91 -46 8 6 21 9 29 5 9 -3 13 -2 10 4 -3 6 1 10 10 10 8 0 18 7 21 15 4 9
11 11 22 6 10 -5 31 -13 47 -18 22 -6 29 -14 27 -28 -2 -16 -1 -17 7 -6 10 16
4 41 -11 41 -6 0 -7 11 -4 25 4 14 2 25 -2 25 -5 0 -27 12 -48 26 -21 15 -52
31 -69 37 -16 5 -39 18 -50 28 -20 18 -21 17 -61 -34z"/>
<path d="M5259 9326 c-3 -3 -25 -8 -50 -11 -24 -3 -47 -9 -52 -14 -13 -13 13
-70 29 -64 8 3 14 -1 14 -10 0 -8 -5 -17 -11 -19 -24 -8 4 -38 36 -38 30 0 33
3 39 35 4 19 11 35 17 35 6 0 7 5 4 10 -3 6 -13 10 -21 10 -8 0 -12 -4 -9 -10
3 -6 -1 -7 -10 -4 -12 5 -13 9 -4 20 7 8 14 12 17 10 8 -9 62 28 59 39 -4 11
-49 19 -58 11z"/>
<path d="M4266 8745 c-3 -9 -6 -26 -7 -38 l0 -22 -9 23 c-12 28 -16 28 -15 -1
1 -26 35 -87 48 -87 4 0 5 5 2 11 -4 6 2 5 13 -2 17 -11 25 -9 55 14 43 33 45
33 49 6 3 -25 33 -47 45 -35 4 4 -3 16 -16 27 l-23 19 28 0 c23 0 26 2 14 10
-11 7 -12 10 -2 10 10 0 10 3 -2 15 -8 8 -21 15 -29 15 -8 0 -20 6 -26 14 -6
8 -24 16 -39 19 -15 3 -39 9 -53 12 -19 5 -28 2 -33 -10z"/>
<path d="M4172 8730 c-1 -15 -7 -31 -13 -37 -8 -8 -7 -16 2 -31 18 -29 -4
-162 -40 -250 -16 -37 -46 -118 -66 -180 l-37 -113 23 -17 c28 -19 157 -26
198 -10 l26 10 -25 14 -25 14 28 -6 c35 -8 37 13 1 22 -17 4 -22 9 -14 14 8 5
0 17 -25 35 -20 16 -43 41 -51 57 -13 26 -19 29 -46 23 -27 -6 -30 -5 -24 10
3 9 9 27 12 40 3 13 12 26 20 29 8 3 14 17 14 31 0 14 6 40 14 59 22 53 38
166 34 241 -2 39 -5 59 -6 45z"/>
<path d="M3655 8641 c-3 -5 -19 -12 -35 -16 -17 -4 -30 -11 -30 -16 0 -6 -9
-7 -21 -4 -12 4 -27 8 -33 9 -6 1 -17 5 -24 10 -7 4 -16 5 -20 1 -4 -4 -1 -10
6 -12 6 -3 12 -9 12 -14 0 -4 -7 -6 -15 -3 -32 13 -13 -13 30 -40 25 -16 45
-32 45 -36 0 -4 18 -12 41 -19 22 -7 43 -19 46 -27 8 -23 40 -16 60 12 10 15
28 37 40 50 18 20 19 25 7 35 -8 7 -13 17 -11 23 2 6 -14 21 -36 34 -43 24
-53 26 -62 13z"/>
<path d="M4920 8241 c0 -6 -13 -11 -29 -11 -16 0 -38 -8 -50 -17 -20 -17 -21
-19 -6 -40 18 -25 44 -30 63 -11 7 7 12 8 12 2 0 -6 -16 -18 -35 -27 -31 -15
-41 -32 -36 -61 1 -4 -3 -14 -9 -20 -5 -7 -7 -16 -3 -19 3 -4 1 -7 -5 -7 -7 0
-12 -13 -12 -30 0 -30 16 -39 36 -21 5 5 18 11 29 14 19 5 19 5 -2 12 -30 10
-29 13 12 59 19 22 42 49 50 60 24 32 5 -4 -27 -51 -36 -53 -36 -67 0 -59 15
4 44 9 65 13 32 5 37 9 35 27 -2 11 -9 20 -16 19 -15 -4 -16 13 -1 22 6 4 16
-1 24 -11 7 -11 17 -16 21 -11 4 4 2 7 -5 7 -7 0 -10 4 -6 10 3 5 12 7 20 3 9
-3 15 1 16 8 1 8 6 -6 13 -31 14 -50 8 -48 113 -35 66 8 66 8 49 -42 -4 -13
-12 -23 -17 -23 -5 0 -9 -4 -9 -10 0 -20 31 -9 42 15 7 17 24 29 50 35 34 10
38 14 38 42 0 28 -2 30 -30 26 -16 -3 -30 -1 -30 4 0 4 10 8 23 8 36 0 50 15
43 44 -4 17 -13 26 -27 26 -23 0 -61 18 -71 33 -3 6 -12 12 -20 13 -7 1 -33 7
-57 12 -53 13 -78 3 -87 -34 -5 -20 -10 -23 -28 -17 -11 4 -40 7 -63 6 -29 0
-43 4 -43 12 0 8 6 15 13 18 9 3 9 9 1 23 -12 21 -44 32 -44 15z"/>
<path d="M3694 7834 c3 -9 6 -18 6 -20 0 -2 8 -4 18 -4 14 0 15 -2 2 -9 -8 -6
-18 -7 -22 -5 -4 3 -8 -4 -8 -15 0 -29 83 -69 105 -51 11 9 15 10 15 1 0 -15
20 -35 38 -39 7 -1 18 10 24 25 7 16 18 36 26 46 10 11 11 17 4 17 -7 0 -12 6
-12 14 0 8 -13 21 -30 29 -27 14 -31 14 -40 -1 -5 -10 -10 -12 -10 -5 0 10 -6
10 -25 1 -14 -6 -25 -15 -25 -20 0 -4 -4 -8 -10 -8 -5 0 -10 7 -10 16 0 18
-24 44 -40 44 -7 0 -9 -7 -6 -16z"/>
<path d="M4136 7636 c-13 -17 -32 -47 -42 -66 -10 -19 -25 -41 -33 -49 -15
-16 -45 -25 -36 -11 3 4 -4 30 -15 56 -18 43 -24 49 -49 49 -16 0 -32 -3 -36
-7 -4 -4 -20 -4 -36 -1 -24 5 -29 1 -42 -30 -8 -19 -26 -42 -38 -52 l-24 -18
33 -33 c20 -20 32 -42 32 -59 0 -14 -4 -24 -9 -21 -5 4 -7 -3 -4 -14 3 -12 -1
-22 -11 -26 -9 -3 -16 -9 -16 -13 0 -11 47 -31 73 -31 12 0 29 -5 37 -10 10
-6 -3 -7 -40 -3 -30 3 -61 10 -67 16 -9 6 -13 6 -13 -2 0 -6 -5 -11 -11 -11
-5 0 -7 5 -4 10 3 6 1 10 -5 10 -6 0 -13 -6 -16 -14 -3 -8 -15 -11 -31 -8 -25
5 -26 3 -19 -29 8 -43 41 -76 91 -93 33 -12 41 -12 54 1 11 12 16 12 19 4 5
-16 -65 -119 -91 -133 -18 -9 -18 -11 -4 -19 10 -6 14 -16 10 -27 -4 -9 5 -3
19 13 14 17 28 42 30 55 2 14 9 24 16 22 6 -1 12 7 12 18 0 11 9 36 19 56 11
20 17 43 14 53 -3 11 -2 12 4 3 7 -9 16 -5 35 15 25 27 49 91 29 79 -15 -10
-20 19 -7 45 6 13 18 24 26 24 10 0 14 8 12 23 -2 12 4 32 12 44 19 27 21 17
4 -13 -10 -16 -10 -23 -1 -26 7 -3 10 -17 6 -38 -7 -41 4 -88 17 -80 6 3 10
-1 10 -9 0 -9 -4 -16 -8 -16 -11 0 -56 -80 -49 -86 3 -3 16 0 29 7 21 11 22
11 9 -4 -7 -10 -22 -17 -32 -17 -11 0 -19 -5 -19 -11 0 -6 9 -8 23 -3 12 4 28
7 35 7 6 0 12 6 12 14 0 7 5 13 10 13 6 0 9 -5 8 -11 -4 -15 45 -20 54 -6 3 6
28 10 53 8 26 -1 52 3 59 8 15 13 66 -7 66 -26 0 -14 39 -53 52 -53 5 0 4 9
-2 20 -6 11 -7 20 -3 20 10 0 43 57 43 74 0 8 9 25 20 39 22 28 25 37 11 37
-5 0 -13 -9 -16 -21 -9 -28 -29 -9 -31 29 -3 69 -2 68 -46 78 -24 6 -56 7 -73
4 -33 -7 -76 1 -76 13 0 4 7 15 16 23 20 21 19 36 -6 68 -27 34 -13 34 76 1
38 -15 74 -24 82 -21 7 3 13 1 13 -4 0 -7 40 -7 60 0 3 2 9 2 13 1 12 -2 -26
50 -55 74 -52 45 -86 65 -91 52 -3 -7 -6 -6 -6 4 -1 19 -27 33 -43 23 -5 -3
-12 3 -15 15 -3 12 -8 21 -12 22 -47 6 -54 4 -75 -25z"/>
<path d="M4720 7382 c0 -13 6 -22 15 -22 8 0 15 -4 15 -10 0 -11 -24 -3 -57
18 -12 7 -28 10 -34 6 -8 -4 -9 -3 -5 4 4 7 1 12 -8 12 -9 0 -16 -6 -16 -12 0
-14 97 -118 109 -118 12 0 52 46 45 53 -12 12 7 29 21 17 21 -18 38 12 24 44
-14 29 -13 29 -56 17 -21 -6 -35 -5 -42 2 -8 8 -11 5 -11 -11z"/>
<path d="M4640 6647 c0 -10 -6 -14 -14 -11 -21 8 -29 -13 -21 -54 4 -20 10
-31 12 -24 3 6 9 10 14 6 14 -8 11 -24 -5 -24 -8 0 -16 -6 -19 -12 -3 -10 -8
-10 -21 1 -9 8 -16 10 -14 4 2 -5 -12 -22 -29 -37 -43 -37 -68 -90 -68 -148 0
-32 -4 -48 -12 -48 -7 0 -13 -11 -13 -25 0 -14 -4 -25 -10 -25 -9 0 -8 8 6 48
10 26 4 105 -9 120 -7 9 -23 11 -47 7 -28 -5 -46 -1 -70 14 -19 11 -37 18 -42
15 -4 -3 -8 1 -8 8 0 17 -75 52 -90 43 -16 -10 -11 -95 10 -155 13 -38 16 -60
9 -72 -13 -24 -23 -23 -39 7 -7 14 -17 25 -22 25 -5 0 -6 9 -3 20 5 14 -2 28
-24 47 -33 31 -101 122 -101 138 -1 14 -90 112 -90 99 0 -6 9 -20 20 -32 11
-11 17 -27 14 -35 -3 -8 7 -25 23 -38 33 -27 103 -117 103 -131 0 -5 19 -35
43 -66 24 -31 46 -65 50 -74 9 -26 25 -22 73 17 45 37 54 41 54 25 0 -5 -18
-21 -39 -35 -27 -19 -37 -32 -34 -44 4 -18 -21 -36 -36 -27 -4 3 -27 -11 -50
-30 -53 -41 -68 -43 -74 -6 l-4 27 -2 -27 c-1 -30 -10 -35 -29 -16 -9 9 -12 9
-12 0 0 -7 4 -12 9 -12 5 0 6 -12 2 -27 -6 -21 -3 -35 11 -55 23 -34 32 -35
46 -5 10 19 11 16 5 -18 -3 -22 -7 -42 -9 -44 -2 -2 -19 13 -38 34 -33 35 -56
40 -56 10 0 -7 9 -17 21 -20 16 -6 18 -9 8 -21 -11 -13 -14 -13 -21 1 -14 24
-28 8 -28 -31 0 -19 -4 -34 -9 -34 -13 0 -45 122 -33 129 6 3 13 20 16 36 3
17 4 25 1 18 -4 -7 -16 -8 -33 -4 -20 6 -37 2 -65 -16 -20 -13 -51 -25 -68
-27 -16 -2 -40 -13 -52 -24 -30 -27 -126 -55 -112 -32 4 6 3 16 -2 23 -10 14
-9 35 2 60 4 10 5 20 2 23 -3 3 3 14 14 25 27 27 24 45 -7 44 -32 -2 -53 -35
-54 -83 0 -38 -21 -40 -30 -4 -4 16 -9 19 -20 12 -12 -8 -11 -12 9 -31 18 -17
20 -23 9 -30 -7 -5 -20 -9 -29 -9 -9 0 -28 -9 -43 -21 -25 -19 -26 -25 -20
-68 4 -25 8 -57 10 -71 1 -14 3 -27 4 -30 1 -3 1 -9 0 -15 -3 -19 13 -100 18
-85 6 20 33 50 44 50 4 0 -1 -9 -12 -20 -38 -38 -27 -47 66 -46 74 1 88 -2
100 -19 18 -24 136 -34 162 -13 12 10 16 10 19 1 6 -18 30 -16 64 4 34 20 51
57 47 103 l-3 35 57 -3 c37 -2 66 2 87 12 27 15 31 15 39 0 8 -14 10 -12 16
11 7 26 8 27 26 10 25 -23 25 -35 0 -35 -45 0 -12 -92 37 -105 34 -8 71 28 52
51 -6 8 -9 17 -5 21 3 3 6 1 6 -5 0 -32 105 14 132 58 17 26 32 25 47 -2 9
-18 10 -18 5 -3 -3 11 -13 43 -21 70 -8 28 -20 60 -25 72 -6 11 -7 27 -2 35 6
10 4 10 -9 -1 -15 -12 -20 -12 -32 5 -8 11 -14 36 -13 56 1 20 -1 40 -5 44 -4
4 -7 1 -7 -6 0 -7 -3 -10 -6 -7 -4 4 -1 13 6 22 7 8 10 26 7 40 -3 20 -1 25
12 23 11 -2 18 -18 22 -48 5 -44 5 -44 16 -19 18 42 72 79 99 69 25 -10 154 8
154 21 0 13 62 37 94 37 15 0 30 2 33 5 3 4 2 44 -3 89 -8 72 -12 83 -29 86
-35 5 -63 24 -69 44 -7 28 10 68 29 68 8 0 15 3 15 8 -1 16 -90 124 -90 109z"/>
<path d="M4502 5593 c-2 -26 -6 -33 -22 -33 -13 0 -28 -12 -38 -30 -12 -20
-22 -28 -32 -23 -8 3 -36 8 -62 11 -34 3 -48 8 -48 19 0 8 5 11 10 8 6 -4 10
5 10 20 0 28 -25 44 -43 26 -6 -6 -22 -11 -35 -11 -53 0 -78 -33 -47 -64 12
-12 22 -13 42 -5 44 16 39 0 -5 -19 -31 -12 -45 -25 -51 -47 -5 -16 -15 -44
-22 -61 -7 -17 -10 -38 -6 -47 5 -14 9 -15 37 -1 30 16 32 41 2 29 -17 -6 -2
12 72 89 39 41 40 41 16 6 -13 -19 -32 -45 -43 -57 -30 -34 -16 -40 65 -29 52
6 60 13 48 37 -6 11 -15 17 -20 14 -6 -3 -7 1 -4 9 7 18 34 10 34 -10 0 -8 4
-14 10 -14 5 0 7 7 4 15 -4 8 -2 15 4 15 6 0 13 -6 15 -12 3 -8 6 -6 6 5 2 35
20 15 23 -25 3 -39 6 -43 31 -46 31 -4 27 -22 -6 -22 -16 0 -18 -3 -9 -12 25
-25 4 -108 -27 -108 -9 0 -23 -5 -31 -10 -12 -8 -10 -10 9 -8 29 4 37 -14 16
-36 -9 -9 -13 -20 -10 -26 3 -5 2 -17 -3 -26 -7 -13 -13 -10 -39 19 -41 47
-48 50 -80 34 -15 -8 -67 -17 -115 -20 -47 -2 -92 -8 -98 -12 -16 -10 50 -67
68 -60 6 3 20 8 30 12 9 4 4 -5 -13 -20 l-30 -27 34 -30 c19 -16 39 -26 45
-23 6 3 8 3 4 -2 -8 -8 25 -80 41 -89 5 -4 22 -1 37 4 15 6 28 9 30 7 7 -6
-41 -92 -58 -105 -10 -7 -18 -25 -18 -41 0 -15 -5 -32 -11 -38 -6 -6 -21 -39
-34 -74 -13 -35 -24 -55 -24 -44 -1 35 -41 63 -41 30 0 -9 7 -18 15 -21 27
-11 16 -26 -12 -20 -21 5 -24 4 -13 -4 13 -8 13 -10 -1 -10 -8 0 -20 5 -25 10
-10 10 -74 3 -74 -9 1 -21 56 -56 65 -41 3 6 -1 10 -9 10 -29 0 -16 15 15 17
19 1 39 -5 51 -17 22 -20 22 -18 4 -156 -2 -11 0 -40 4 -65 7 -38 8 -40 9 -11
0 17 1 35 0 38 0 3 8 12 18 19 17 13 17 14 0 32 -20 23 -20 26 -7 75 10 36 11
36 48 26 20 -6 42 -14 48 -19 8 -7 22 3 43 29 26 34 29 42 19 63 -16 33 -70
59 -87 42 -34 -37 -31 17 7 92 47 95 78 167 128 289 52 130 52 131 90 139 52
11 57 19 6 11 l-41 -6 14 38 c7 22 16 52 20 67 5 25 10 28 30 23 13 -3 27 -2
30 4 3 5 -1 10 -9 10 -21 0 -30 18 -17 34 6 7 8 16 4 20 -12 12 20 26 58 26
34 0 36 -2 31 -26 -2 -14 -13 -31 -23 -37 -23 -14 -25 -27 -4 -27 8 0 22 11
31 25 10 16 26 25 43 25 43 0 69 31 51 61 -10 15 15 49 35 49 7 0 23 10 37 23
24 22 24 22 44 3 10 -10 13 -16 7 -12 -23 13 -14 -20 11 -43 30 -28 45 -11 22
24 -20 30 -22 55 -4 37 7 -7 19 -12 28 -12 13 1 13 2 0 13 -9 7 -14 20 -12 30
2 12 -7 22 -30 33 -18 8 -44 22 -58 29 -14 8 -35 15 -47 15 -13 0 -23 5 -23
10 0 6 -6 10 -14 10 -8 0 -16 5 -18 12 -3 7 -18 -9 -36 -34 l-31 -45 -40 10
c-36 10 -40 14 -44 46 l-4 36 -1 -32z"/>
<path d="M4496 4971 c-20 -51 -34 -96 -31 -99 3 -3 5 0 5 8 0 8 4 9 13 3 14
-12 47 -13 47 -2 0 14 60 3 77 -14 20 -20 3 -23 -29 -6 -16 8 -22 8 -28 -2
-10 -15 17 -59 35 -59 6 0 17 -11 23 -25 11 -24 10 -25 -7 -15 -13 6 -22 6
-26 1 -7 -13 24 -28 51 -26 12 1 36 13 54 25 l33 23 -35 18 c-51 26 -57 49
-13 49 39 0 43 6 18 27 -17 14 -17 14 0 9 10 -3 23 -6 28 -6 6 0 7 -4 4 -10
-3 -5 -1 -10 4 -10 17 0 13 15 -9 35 -11 10 -20 24 -20 31 0 7 -15 25 -34 39
-19 14 -40 40 -47 56 -10 27 -16 30 -40 25 -17 -3 -29 -1 -31 6 -3 7 -21 -30
-42 -81z"/>
<path d="M3857 4506 c-3 -8 -4 -25 -1 -38 4 -22 4 -22 -7 2 -7 14 -12 28 -11
31 0 3 -6 6 -14 6 -17 0 -19 -43 -1 -51 14 -7 -45 2 -83 12 -33 9 -186 9 -195
0 -9 -9 8 -61 22 -65 6 -2 18 3 27 12 16 16 41 19 152 16 59 -1 61 -2 57 -25
-4 -20 0 -25 26 -31 17 -4 35 -14 40 -23 14 -24 25 -8 12 16 -6 12 -11 31 -11
44 1 19 3 17 16 -12 9 -19 17 -46 19 -60 4 -40 16 -70 27 -70 6 0 8 12 5 30
-5 23 -3 28 8 23 8 -3 15 -9 15 -13 0 -4 11 -10 25 -13 22 -4 29 2 45 34 11
21 30 45 42 53 l22 16 -22 0 c-16 0 -22 6 -22 23 -1 32 -74 66 -103 47 -17
-10 -22 -9 -29 4 -5 9 -16 16 -23 16 -8 0 -14 5 -12 11 3 17 -20 22 -26 5z"/>
<path d="M4160 3888 c28 -45 25 -51 -18 -44 -53 7 -64 -3 -59 -52 2 -23 0 -43
-5 -44 -5 -2 2 -16 17 -32 21 -23 32 -27 56 -22 16 3 29 3 29 0 0 -11 -55 -64
-66 -64 -14 0 -54 -43 -54 -58 0 -6 -7 -9 -15 -6 -9 4 -15 0 -15 -10 0 -9 -6
-16 -12 -16 -9 0 -8 -4 2 -10 11 -7 11 -10 2 -10 -7 0 -10 -5 -6 -11 9 -15 82
-3 139 22 25 11 43 24 40 29 -3 4 4 6 14 3 13 -3 23 2 31 16 6 12 16 19 21 15
18 -11 64 -12 77 -2 17 15 15 2 -5 -29 -17 -25 -16 -25 4 -19 26 8 59 -34 41
-52 -14 -14 -11 -17 20 -27 23 -7 23 -6 8 24 -23 43 -20 48 9 17 13 -14 29
-26 34 -26 19 0 82 42 92 62 13 24 13 24 -31 37 l-35 10 45 -2 45 -2 9 53 c11
63 26 68 26 8 0 -52 13 -65 60 -62 19 2 51 -5 71 -15 20 -10 39 -15 43 -12 3
4 6 -1 6 -10 0 -19 11 -22 27 -6 7 7 16 3 31 -16 12 -15 26 -24 32 -20 17 10
11 91 -10 153 l-20 57 21 29 22 29 -27 24 c-15 13 -35 23 -45 23 -10 0 -24 7
-31 15 -28 33 -65 12 -76 -42 -6 -28 -9 -31 -43 -30 -20 1 -46 -2 -58 -6 -18
-7 -22 -4 -25 19 -2 15 -14 35 -28 45 -22 15 -33 16 -90 6 -42 -7 -70 -17 -80
-30 -10 -12 -33 -21 -63 -24 -26 -3 -47 -8 -47 -11 0 -6 42 -75 49 -82 4 -3
11 -19 17 -37 18 -50 -8 -31 -34 25 -33 74 -142 251 -154 252 -4 0 1 -15 12
-32z"/>
<path d="M4314 3481 c8 -12 -19 -22 -69 -27 -79 -8 -89 -11 -93 -22 -7 -22
-60 -42 -107 -42 -59 0 -72 -23 -56 -99 6 -29 11 -67 11 -86 0 -38 20 -55 64
-55 28 0 33 -9 15 -27 -13 -13 -3 -36 12 -27 5 3 7 9 4 14 -3 5 -1 11 5 15 5
3 12 -6 16 -20 8 -34 56 -73 100 -81 27 -5 40 -14 51 -38 14 -30 13 -9 -2 26
-5 12 1 21 22 31 41 22 75 61 67 80 -3 9 -12 13 -20 10 -8 -3 -14 0 -14 6 0 8
-16 11 -43 10 -24 -2 -49 1 -56 6 -8 4 -16 2 -21 -5 -5 -9 -9 -8 -13 4 -7 18
28 32 46 18 7 -5 32 -12 57 -15 25 -4 53 -7 64 -9 14 -2 21 7 32 42 8 25 14
57 14 73 0 15 5 27 10 27 6 0 10 -22 10 -50 0 -27 4 -50 9 -50 5 0 7 -10 3
-22 -3 -14 -2 -19 6 -14 7 4 12 2 12 -5 0 -8 11 -9 36 -5 32 7 34 6 25 -12 -8
-15 -4 -24 19 -45 22 -22 29 -24 34 -12 3 8 1 27 -4 41 -14 36 -14 36 25 12
29 -16 58 -21 143 -25 61 -2 120 0 135 6 25 10 26 12 15 38 -7 15 -13 29 -14
31 -1 2 -13 -4 -26 -12 -14 -9 -28 -13 -31 -9 -4 3 -7 2 -7 -4 0 -6 -33 -10
-82 -9 l-83 1 0 30 c0 39 34 46 64 14 11 -12 24 -20 27 -16 11 11 14 69 5 81
-8 10 -1 82 14 144 5 19 -1 25 -42 43 -27 11 -55 27 -64 35 -27 24 -66 2 -78
-43 -6 -21 -11 -44 -11 -50 0 -22 -78 -9 -100 17 l-19 22 2 -28 c1 -20 -3 -29
-15 -32 -13 -2 -18 3 -18 17 0 31 -21 70 -42 76 -10 4 -18 10 -18 15 0 4 -7
11 -16 14 -8 3 -13 2 -10 -3z"/>
<path d="M5000 2213 c-8 -3 -22 -7 -30 -10 -8 -4 -20 -5 -27 -4 -6 1 -14 -6
-16 -16 -4 -17 -5 -17 -6 0 -1 20 -27 22 -68 6 -15 -7 -56 -11 -90 -10 -59 1
-63 0 -69 -25 -11 -41 12 -95 63 -149 26 -27 65 -70 88 -94 l40 -44 -59 5
c-42 3 -64 11 -75 24 -28 33 -181 28 -181 -6 0 -5 7 -7 15 -4 19 8 19 -3 1
-22 -22 -21 -26 -18 -26 20 0 42 -15 48 -56 24 -35 -20 -44 -42 -44 -104 0
-22 -2 -43 -5 -46 -3 -3 -26 0 -50 5 -38 9 -52 7 -82 -7 -25 -12 -39 -14 -41
-7 -2 6 -11 2 -21 -10 -16 -20 -17 -20 -39 20 -13 23 -18 41 -13 41 6 0 11 -7
11 -15 0 -17 12 -19 27 -4 16 16 3 57 -25 79 -32 26 -62 26 -69 0 -3 -11 -9
-17 -14 -14 -5 3 -9 0 -9 -5 0 -6 5 -11 10 -11 6 0 10 -8 10 -17 0 -14 -2 -15
-9 -4 -6 9 -18 11 -33 8 -27 -7 -118 -83 -118 -98 0 -6 16 -25 36 -43 41 -38
68 -38 109 0 15 14 37 24 53 23 20 -1 22 -3 8 -6 -11 -3 -37 -23 -58 -44 -21
-21 -45 -39 -53 -39 -16 0 -17 -2 -20 -78 -1 -40 1 -52 11 -48 10 4 9 -4 -4
-30 -14 -31 -14 -36 -2 -44 14 -9 7 -14 -12 -11 -10 1 -3 -55 11 -91 13 -34
50 -39 58 -8 3 11 21 29 39 41 26 16 33 26 29 40 -6 18 6 24 40 20 6 0 25 12
43 28 42 39 69 47 75 24 4 -15 5 -14 6 3 1 13 9 24 21 27 26 7 25 31 -2 69
-20 29 -22 30 -35 12 -12 -16 -13 -16 -13 8 0 41 19 44 50 9 33 -35 48 -39 56
-13 3 9 11 27 16 39 6 12 8 28 5 36 -3 7 -1 20 3 27 6 9 13 -2 24 -36 28 -91
44 -128 55 -132 6 -2 27 6 47 17 19 12 45 21 58 21 12 0 32 9 44 21 24 22 109
55 118 46 9 -8 13 -69 7 -99 -3 -15 -14 -36 -24 -47 -26 -28 -24 -40 8 -37 32
4 49 25 58 74 7 38 37 72 65 72 9 0 26 10 38 23 19 20 21 30 15 91 -3 37 -9
64 -12 59 -6 -8 -107 -63 -116 -63 -3 0 0 9 7 20 7 11 23 20 35 20 13 0 23 5
23 10 0 6 6 10 13 10 27 0 46 37 40 79 -3 23 -10 44 -16 48 -6 4 -8 0 -4 -10
4 -10 -3 -23 -18 -35 -13 -11 -22 -22 -19 -25 3 -3 -2 -19 -11 -37 -9 -18 -19
-29 -23 -26 -3 4 0 12 6 18 7 7 12 24 12 38 0 15 9 31 21 38 24 15 23 57 -3
57 -16 0 -88 63 -88 78 0 4 13 7 29 7 29 0 61 22 61 42 0 5 20 33 45 60 56 63
85 152 45 141z"/>
</g>
</svg>
