<?xml version="1.0" standalone="no"?>
<!DOCTYPE svg PUBLIC "-//W3C//DTD SVG 20010904//EN"
 "http://www.w3.org/TR/2001/REC-SVG-20010904/DTD/svg10.dtd">
<svg version="1.0" xmlns="http://www.w3.org/2000/svg"
 width="2285.000000pt" height="1917.000000pt" viewBox="0 0 2285.000000 1917.000000"
 preserveAspectRatio="xMidYMid meet">
<metadata>
Created by potrace 1.16, written by Peter Selinger 2001-2019
</metadata>
<g transform="translate(0.000000,1917.000000) scale(0.100000,-0.100000)"
fill="#2A482B" stroke="none">
<path d="M9395 19164 c-623 -32 -823 -59 -1205 -163 -313 -86 -495 -147 -723
-245 -602 -258 -991 -531 -1325 -931 -283 -338 -400 -651 -364 -973 45 -400
268 -693 691 -907 39 -19 85 -48 104 -65 33 -29 34 -32 43 -137 14 -174 9
-236 -30 -408 -235 -1039 -988 -3385 -1681 -5235 -714 -1906 -1820 -4512
-2421 -5700 -167 -332 -229 -426 -295 -449 -26 -9 -29 -7 -40 26 -15 46 -15
49 -1 468 25 727 41 1501 33 1535 -13 57 -27 74 -81 104 -66 36 -158 46 -195
22 -50 -33 -78 -91 -82 -169 -2 -40 -8 -87 -14 -106 -16 -48 -81 -115 -148
-153 -142 -80 -170 -122 -216 -310 -19 -79 -80 -379 -135 -668 -303 -1574
-422 -2079 -720 -3050 -117 -383 -297 -921 -340 -1022 -43 -100 -111 -199
-175 -256 -56 -49 -75 -85 -75 -142 1 -81 68 -188 137 -216 56 -24 136 -17
221 17 93 38 377 143 562 208 254 90 296 120 468 336 411 517 1005 1035 1537
1340 353 203 1089 535 1350 609 333 95 2355 507 3295 670 113 20 284 50 380
67 913 159 4639 904 7285 1455 2105 439 2510 538 3197 780 134 47 382 134 551
194 196 68 317 116 333 131 31 29 44 77 44 159 0 89 25 299 51 423 99 479 351
944 714 1316 222 228 445 391 720 526 253 124 511 205 828 259 281 49 435 54
902 30 150 -8 190 2 239 57 28 30 35 46 31 62 -24 83 -163 191 -331 257 -248
97 -531 144 -869 144 -404 1 -731 -54 -1186 -198 -396 -125 -546 -179 -769
-276 -219 -96 -365 -147 -374 -132 -2 4 -9 31 -16 60 -15 63 -10 108 23 223
82 282 106 686 62 1025 -65 496 -279 1015 -633 1534 -210 308 -316 433 -506
597 -423 366 -973 698 -1501 906 -1014 401 -2035 670 -2895 761 -184 20 -548
42 -943 57 -346 13 -1257 7 -1482 -10 -223 -17 -449 -41 -595 -62 -74 -11
-225 -33 -336 -49 -158 -24 -733 -125 -877 -156 -27 -6 -27 -5 -22 38 16 111
41 189 254 791 126 353 294 833 375 1066 81 233 183 522 226 642 154 425 195
486 438 650 297 201 392 294 555 542 92 139 113 175 105 182 -14 15 -81 -36
-214 -165 -406 -391 -997 -743 -1483 -884 -126 -37 -703 -156 -871 -180 -263
-38 -541 -41 -695 -6 -112 25 -217 107 -261 205 -67 145 -53 378 35 584 61
143 178 297 357 471 260 252 536 443 915 635 368 186 483 228 1160 419 407
115 513 157 634 250 130 100 233 264 275 436 24 103 24 103 3 129 l-18 22 -66
-65 c-36 -35 -90 -77 -120 -93 -48 -25 -64 -28 -144 -28 -81 1 -100 4 -185 39
-167 67 -378 110 -675 136 -123 11 -675 20 -800 14z m2995 -7445 c572 -85
1197 -240 1590 -394 238 -93 678 -329 950 -510 278 -184 541 -449 735 -740
248 -372 409 -793 559 -1462 61 -273 69 -603 20 -928 -47 -319 -184 -736 -276
-840 -51 -58 -97 -81 -184 -95 -38 -5 -170 -36 -294 -67 -208 -52 -228 -55
-255 -42 -16 8 -37 28 -47 46 -11 17 -59 176 -108 353 -206 739 -342 1123
-648 1820 -179 408 -195 442 -320 667 -60 109 -145 266 -189 348 -272 513
-562 845 -1158 1324 -245 197 -277 221 -426 312 -74 45 -153 95 -177 111 -42
29 -82 80 -82 106 0 18 39 32 75 26 17 -2 122 -18 235 -35z m-2957 -3454 c215
-19 589 -102 1042 -231 577 -166 792 -278 1235 -648 289 -241 378 -339 665
-721 94 -126 207 -273 250 -325 95 -117 113 -152 91 -186 -9 -13 -25 -28 -36
-34 -19 -10 -490 -100 -1370 -260 -550 -100 -1050 -187 -1737 -300 -876 -145
-2166 -376 -2571 -460 -316 -65 -337 -65 -334 4 2 39 470 1336 649 1796 130
334 198 528 249 710 83 294 197 441 400 510 60 21 507 112 639 130 235 32 565
38 828 15z"/>
</g>
</svg>
